#define close_width 12
#define close_height 12
static unsigned char close_bits[] = {
   0xf0, 0x00, 0xfc, 0x03, 0xf2, 0x04, 0x62, 0x04, 0x07, 0x0e, 0x0f, 0x0f,
   0x0f, 0x0f, 0x07, 0x0e, 0x62, 0x04, 0xf2, 0x04, 0xfc, 0x03, 0xf0, 0x00 };
