#define max_width 12
#define max_height 12
static unsigned char max_bits[] = {
   0xf0, 0x00, 0xfc, 0x03, 0x02, 0x04, 0x02, 0x04, 0x03, 0x0c, 0xfb, 0x0d,
   0xfb, 0x0d, 0xfb, 0x0d, 0xfa, 0x05, 0x02, 0x04, 0xfc, 0x03, 0xf0, 0x00 };
