#define shade_width 12
#define shade_height 12
static unsigned char shade_bits[] = {
   0xf0, 0x00, 0xfc, 0x03, 0x9e, 0x07, 0x0e, 0x07, 0x07, 0x0e, 0x03, 0x0c,
   0x9f, 0x0f, 0x9f, 0x0f, 0x9e, 0x07, 0x9e, 0x07, 0xfc, 0x03, 0xf0, 0x00 };
